<?xml version="1.0" encoding="UTF-8"?>
<!DOCTYPE svg PUBLIC "-//W3C//DTD SVG 1.1//EN" "http://www.w3.org/Graphics/SVG/1.1/DTD/svg11.dtd">
<!-- Creator: CorelDRAW X7 -->
<svg xmlns="http://www.w3.org/2000/svg" xml:space="preserve" width="82.1856mm" height="82.1856mm" version="1.1" style="shape-rendering:geometricPrecision; text-rendering:geometricPrecision; image-rendering:optimizeQuality; fill-rule:evenodd; clip-rule:evenodd"
viewBox="0 0 2080 2080"
 xmlns:xlink="http://www.w3.org/1999/xlink">
 <defs>
  <style type="text/css">
   <![CDATA[
    .fil0 {fill:white}
   ]]>
  </style>
 </defs>
 <g id="Слой_x0020_1">
  <metadata id="CorelCorpID_0Corel-Layer"/>
  <path class="fil0" d="M969 179c18,-17 45,-19 65,-6 20,14 29,40 20,62 -65,170 -140,398 -140,544 0,145 75,374 140,543 9,23 0,49 -20,62 -20,14 -47,12 -65,-5 -239,-225 -638,-600 -638,-600 0,0 399,-375 638,-600zm71 -179c574,0 1040,466 1040,1040 0,574 -466,1040 -1040,1040 -574,0 -1040,-466 -1040,-1040 0,-574 466,-1040 1040,-1040zm31 698c-18,-16 -45,-19 -65,-5 -20,13 -29,39 -20,62 65,169 140,398 140,544 0,145 -75,374 -140,543 -9,23 0,49 20,62 20,14 47,12 65,-5 239,-225 638,-600 638,-600 0,0 -399,-376 -638,-601zm-31 -567c501,0 908,407 908,909 0,501 -407,908 -908,908 -502,0 -909,-407 -909,-908 0,-502 407,-909 909,-909z"/>
 </g>
</svg>
